<?xml version="1.0" encoding="UTF-8"?>
<svg id="Laag_2" data-name="Laag 2" xmlns="http://www.w3.org/2000/svg" viewBox="0 0 82.11 64.94" class="image-dienst-boomverzorging">
  <defs>
    <style>
      .cls-1 {
        fill: #54a88a;
        stroke-width: 0px;
      }
    </style>
  </defs>
  <g id="Laag_1-2" data-name="Laag 1">
    <g>
      <path class="cls-1" d="M22.72,19.37c.1,0,.2-.02.29-.05l.3-.1c.31-.1.54-.35.64-.65.1-.3.04-.64-.16-.9-.06-.08-.12-.15-.19-.22-.19-.19-.43-.3-.73-.29-.27,0-.53.12-.71.32l-.12.13c-.33.33-.41.87-.17,1.26.19.31.51.5.85.5h0Z"/>
      <path class="cls-1" d="M34.74,64.94h4.64c.55,0,1-.45,1-1v-16.21c1.54.45,4.29,1.19,7.58,1.74.95.14,1.92.29,2.92.4,3.32.37,6.36.38,9.03.02.37-.05.69-.31.81-.67.12-.36.04-.75-.23-1.02,0,0-.35-.36-.92-.97-1.1-1.16-3.04-3.22-5.1-5.43l-.36-.39c-.96-1.03-1.93-2.07-2.84-3.07-.2-.22-.41-.45-.61-.66-.44-.48-1.35-1.47-2.2-2.42l9.47,1.74c.43.08.84-.12,1.05-.49.21-.37.16-.84-.12-1.16,0,0-1.27-1.43-3.12-3.57-5.57-6.48-9.68-11.6-12.08-15.02l7.43,2.56c.43.15.92-.02,1.17-.4.25-.39.2-.89-.11-1.23-.09-.1-9.21-9.79-12.81-17.12-.17-.34-.52-.56-.9-.56h-2.78c-.38,0-.73.22-.9.56-3.41,6.95-11.67,15.9-12.6,16.9-.37.39-.36,1.01.02,1.39.26.35.72.5,1.13.36l7.13-2.45c-1.1,1.56-2.54,3.47-4.28,5.64-.18.22-.37.46-.54.68-.54.67-1.1,1.36-1.66,2.04l-.65.79c-4.11,4.97-8.04,9.4-8.07,9.44-.28.32-.33.78-.12,1.15.21.37.63.57,1.05.49l9.46-1.74c-.31.36-.65.73-1.01,1.12-2.12,2.34-5.39,5.86-9.45,10.17-.95,1.01-1.55,1.63-1.55,1.64-.26.27-.34.67-.22,1.02.12.35.44.61.81.66.53.07,1.07.12,1.61.17,1.05.08,2.19.11,3.47.09,6.03-.15,11.94-1.68,14.44-2.42v16.22c0,.55.45,1,1,1v.02ZM38.38,62.94h-2.64v-16.57c0-.32-.16-.63-.42-.81-.26-.19-.6-.24-.91-.13,0,0-.17.06-.46.15-.03,0-.05.01-.07.02-1.79.56-8.15,2.39-14.62,2.55-1.01.02-1.92,0-2.77-.05.05-.05.09-.1.14-.15,4.07-4.33,7.35-7.85,9.47-10.19.37-.4.73-.79,1.04-1.15,1.01-1.12,1.63-1.84,1.92-2.23.24-.33.26-.78.04-1.12-.22-.35-.62-.53-1.03-.45l-9.42,1.73c1.55-1.78,3.86-4.47,6.23-7.33l.65-.79c.56-.68,1.13-1.37,1.69-2.07.18-.23.35-.45.52-.66,2.87-3.59,4.89-6.37,6.02-8.28.21-.36.18-.82-.09-1.14-.27-.32-.7-.45-1.1-.31l-6.55,2.25c2.91-3.34,7.67-9.15,10.27-14.17h1.55c2.6,5.03,7.31,10.78,10.26,14.16l-6.53-2.25c-.39-.14-.83-.01-1.1.31-.27.32-.3.78-.09,1.14,1.94,3.3,6.6,9.26,13.85,17.72.45.52.86,1,1.24,1.42l-9.42-1.73c-.4-.08-.81.11-1.03.45-.22.35-.2.79.04,1.12.43.59,1.71,2.03,4.14,4.68.21.22.4.43.6.65.92,1,1.9,2.05,2.86,3.08l.36.39c1.79,1.92,3.49,3.73,4.63,4.93-2,.12-4.19.05-6.54-.22-.98-.11-1.92-.25-2.83-.39-4.81-.8-8.53-2.06-8.57-2.07-.3-.1-.64-.05-.9.13-.26.19-.42.49-.42.81v16.57h0Z"/>
      <path class="cls-1" d="M15.9,58.54h3.38c.55,0,1-.45,1-1v-8.4c0-.27-.11-.53-.3-.71-.19-.19-.46-.29-.72-.29-1.22.02-2.29,0-3.28-.09-.28-.02-.55.07-.76.26-.21.19-.32.46-.32.73v8.49c0,.55.45,1,1,1h0ZM18.27,56.54h-1.38v-6.43c.44.02.9.03,1.38.03v6.4Z"/>
      <path class="cls-1" d="M15.9,48.25c.27,0,.54-.11.73-.31,4.07-4.33,7.35-7.85,9.47-10.19.2-.22.29-.52.25-.8.3,0,.57-.11.77-.33,1.03-1.14,1.65-1.86,1.93-2.25.24-.33.26-.78.04-1.12-.22-.35-.62-.53-1.03-.45l-9.42,1.73c1.55-1.78,3.86-4.47,6.23-7.33.3-.36.31-.88.02-1.25-.65-.83-1.24-1.61-1.75-2.31l2.97,1.03c.4.14.86,0,1.12-.33.17-.21.34-.44.51-.65.31-.38.3-.93-.03-1.3-.76-.85-2.29-2.59-3.91-4.7-.04-.05-.08-.11-.13-.16-1.9-2.47-3.3-4.61-4.15-6.36-.17-.34-.52-.56-.9-.56h-2.03c-.38,0-.73.22-.9.56-2.61,5.32-9.25,12.37-9.32,12.44-.32.33-.36.84-.11,1.23s.73.56,1.17.4l4.63-1.6c-3.68,5.07-10.51,12.78-10.59,12.87-.28.32-.33.78-.12,1.15.21.37.63.57,1.05.49l6.14-1.12c-2.4,2.65-6.43,6.93-8.26,8.85-.26.27-.34.67-.22,1.02.12.35.44.61.81.66,5.36.73,11.41-.73,14.04-1.48v1.19c0,.41.25.78.63.93.12.05.25.07.37.07v-.03ZM15.9,43.71c-.11,0-.22.02-.32.05-.07.02-6.46,2.17-12.42,1.96,2.62-2.78,7.97-8.48,8.81-9.62.24-.33.26-.78.04-1.12-.22-.35-.62-.53-1.03-.45l-6.13,1.12c2.96-3.43,8.54-10.03,10.55-13.44.21-.36.18-.82-.09-1.14-.27-.32-.71-.45-1.1-.31l-3.83,1.32c2.13-2.49,5.07-6.19,6.81-9.49h.8c.93,1.77,2.31,3.84,4.11,6.18.03.03.05.07.08.1.95,1.23,1.86,2.34,2.61,3.22l-3.84-1.33c-.39-.14-.84-.01-1.1.31-.27.33-.3.78-.08,1.14.78,1.32,2.01,2.98,3.04,4.32-3.92,4.71-7.53,8.78-7.57,8.83-.28.32-.33.78-.12,1.15.21.37.63.57,1.05.49l6.87-1.26c.03.13.09.25.17.36.15.2.43.53.8.96-1.77,1.94-4.2,4.55-7.12,7.67v-.02c0-.32-.16-.62-.42-.81-.17-.12-.38-.19-.58-.19h.02Z"/>
      <path class="cls-1" d="M62.83,60.67h3.38c.55,0,1-.45,1-1v-11.48c2.63.75,8.68,2.21,14.04,1.48.37-.05.68-.3.81-.66.12-.35.04-.75-.22-1.02-1.82-1.92-5.85-6.21-8.26-8.85l6.14,1.12c.42.08.84-.12,1.05-.49.21-.37.16-.84-.12-1.15-.08-.09-6.91-7.8-10.59-12.86l4.64,1.59c.44.15.92-.02,1.17-.4.25-.39.2-.89-.11-1.23-.07-.07-6.71-7.12-9.31-12.43-.17-.34-.52-.56-.9-.56h-2.04c-.38,0-.73.22-.9.56-2.6,5.32-9.24,12.36-9.31,12.43-.32.33-.36.84-.11,1.23s.73.55,1.17.4l4.64-1.6c-1.16,1.6-2.75,3.62-4.77,6.05-.31.38-.31.92.01,1.29.45.52.86,1,1.23,1.42l-2.49-.46c-.35-.06-.71.06-.95.34-1,1.19-1.91,2.23-2.56,2.98l-.29.34c-.34.39-.32.97.03,1.34.19.2.39.42.58.63.23.26.58.37.92.31l4.74-.87c-.65.72-1.47,1.61-2.45,2.66-.36.38-.36.98,0,1.36,2.06,2.21,4,4.27,5.11,5.44.24.25.6.37.94.29,1.12-.24,2.07-.49,2.77-.69v11.48c0,.55.45,1,1,1h0ZM65.2,58.67h-1.38v-11.83c0-.32-.16-.63-.42-.81s-.6-.24-.91-.13c-.01,0-1.33.46-3.32.92-1-1.06-2.48-2.63-4.07-4.33,2.2-2.38,3.41-3.74,3.78-4.24.24-.33.26-.77.04-1.12-.07-.11-.15-.2-.25-.27.12-.08.22-.2.3-.33.21-.37.16-.84-.12-1.16,0,0-1.02-1.15-2.57-2.93,3-3.65,5.03-6.37,6.03-8.08.21-.36.18-.82-.09-1.14-.26-.32-.7-.45-1.1-.31l-3.83,1.32c2.13-2.49,5.07-6.19,6.8-9.49h.81c1.74,3.3,4.67,7,6.8,9.49l-3.83-1.32c-.4-.14-.84-.01-1.1.31-.26.32-.3.78-.09,1.14,2.01,3.41,7.59,10.01,10.55,13.43l-6.13-1.12c-.4-.08-.81.11-1.03.45-.22.35-.2.79.04,1.12.84,1.14,6.19,6.84,8.81,9.62-5.96.2-12.35-1.94-12.42-1.96-.3-.1-.64-.05-.9.13-.26.19-.42.49-.42.81v11.83h.02ZM56.97,36.83l-5.2.95c.42-.49.9-1.05,1.41-1.65l3.79.7Z"/>
      <path class="cls-1" d="M50.99,49.87c.53,0,.97-.41,1-.94s-.36-.99-.89-1.05c-.98-.11-1.92-.25-2.83-.39-.32-.05-.66.07-.88.31l-.16.17c-.27.27-.36.67-.24,1.02.12.36.43.62.81.67.96.13,2.01.2,3.2.2h-.01Z"/>
    </g>
  </g>
</svg>