<?xml version="1.0" encoding="UTF-8"?>
<svg id="Laag_2" data-name="Laag 2" xmlns="http://www.w3.org/2000/svg" viewBox="0 0 56 45.05">
  <defs>
    <style>
      .cls-1 {
        fill: #54a88a;
        stroke-width: 0px;
      }
    </style>
  </defs>
  <g id="Laag_1-2" data-name="Laag 1">
    <path class="cls-1" d="M40.72,7.88v-1.84c1.66.23,3.19-.92,3.43-2.58.23-1.66-.92-3.19-2.58-3.43-.13-.02-.25-.03-.38-.03h-6.96c-1.67.02-3.01,1.38-2.99,3.05.02,1.64,1.35,2.97,2.99,2.99h.47v1.65H7.57c-.55.01-.99.47-.98,1.02.01.54.44.97.98.98,2.42,0,30.7,0,32.07,0,8.67,1.52,14.98,9.35,14.4,17.86-.56,6.48-4.75,12.09-10.8,14.46v-4.68c5.95-4,7.53-12.06,3.53-18-.8-1.19-1.79-2.24-2.94-3.11-.44-.34-1.08-.25-1.41.19-.13.17-.2.38-.21.6v8.88l-4.68,2.73-4.32-2.85v-8.76c0-.56-.46-1-1.02-1-.18,0-.36.05-.51.15-8.71,5.69-7.24,17.11.44,21.09v5.8h-15.08c-.55.02-.99.48-.97,1.03.02.53.44.95.97.97h22.69c.99-.15,1.97-.38,2.92-.7,18.82-6.34,17.34-31.93-1.93-36.47ZM33.21,3.02c0-.56.46-1.02,1.02-1.02h6.96c.56,0,1.02.46,1.02,1.02s-.46,1.02-1.02,1.02h-6.96c-.56,0-1.02-.46-1.02-1.02h0ZM36.7,6.05h2.02v1.64h-2.02v-1.64ZM39.64,43.05h-5.53v-6.41c0-.39-.23-.75-.59-.91-5.02-2.32-7.21-8.28-4.89-13.3.6-1.3,1.48-2.46,2.56-3.39v7.29c0,.34.17.65.45.84l5.29,3.49c.32.21.73.22,1.06.03l5.71-3.34c.31-.18.5-.51.5-.86v-7.11c4.01,4.48,3.62,11.37-.86,15.37-.51.45-1.05.86-1.63,1.21-.3.18-.48.51-.48.86v5.91c-.52.14-1.05.26-1.59.35Z"/>
    <path class="cls-1" d="M22.91,37.14c0-.55-.45-1-1-1h-12.11c-.55,0-1,.45-1,1,0,.55.45,1,1,1h12.11c.55,0,1-.45,1-1h0Z"/>
    <path class="cls-1" d="M22.91,29.96c0-.55-.45-1-1-1H6.5c-.55,0-1,.45-1,1,0,.55.45,1,1,1,0,0,0,0,0,0h15.41c.55,0,1-.45,1-1h0Z"/>
    <path class="cls-1" d="M22.91,22.78c0-.55-.45-1-1-1H3.4c-.55,0-1,.45-1,1s.45,1,1,1c0,0,0,0,0,0h18.51c.55,0,1-.45,1-1h0Z"/>
    <path class="cls-1" d="M22.91,15.6c0-.55-.45-1-1-1H1C.45,14.6,0,15.05,0,15.6c0,.55.45,1,1,1h20.91c.55,0,1-.45,1-1h0Z"/>
  </g>
</svg>