<?xml version="1.0" encoding="UTF-8"?>
<svg id="Laag_2" data-name="Laag 2" xmlns="http://www.w3.org/2000/svg" viewBox="0 0 47.96 18.83">
  <defs>
    <style>
      .cls-1 {
        fill: #54a88a;
        stroke-width: 0px;
      }
    </style>
  </defs>
  <g id="Laag_1-2" data-name="Laag 1">
    <path class="cls-1" d="M29.38,8.93c-.09-1.48-.55-2.8-1.23-3.76h0s0,0,0-.01c-.02-.04-.05-.07-.08-.11-.03-.05-.07-.1-.11-.15-.56-.69-1.24-1.15-1.99-1.3.17,2.76,1.61,4.97,3.42,5.33Z"/>
    <path class="cls-1" d="M17.07,6.94c.18.63.29,1.31.33,2.02,2.46-.31,4.41-3.01,4.6-6.37-2.75.21-4.91,2.08-4.93,4.35Z"/>
    <path class="cls-1" d="M16.4,8.93c-.1-1.56-.6-2.94-1.34-3.92-.03-.04-.06-.08-.09-.12-.56-.69-1.25-1.15-2-1.3.17,2.76,1.61,4.97,3.42,5.33Z"/>
    <path class="cls-1" d="M15.88,4.44s.01.01.01.02c.06.07.1.15.14.21.13.19.25.39.36.6.32-.82.87-1.55,1.59-2.15C17.86,1.55,16.37.16,14.65,0c-.59,1.76.88,3.95,1.23,4.44Z"/>
    <path class="cls-1" d="M28.86,4.45s.01.01.01.02c.06.07.1.14.13.2.13.19.26.4.37.61.32-.82.87-1.55,1.59-2.15C30.84,1.55,29.35.16,27.63,0c-.59,1.76.88,3.95,1.24,4.44Z"/>
    <path class="cls-1" d="M47.96,2.58c-2.75.21-4.91,2.08-4.93,4.36.18.63.29,1.31.33,2.01,2.46-.31,4.41-3.01,4.6-6.37Z"/>
    <path class="cls-1" d="M41.85,4.45s0,0,0,.01c.03.04.08.11.12.19.13.2.26.4.38.62.32-.82.87-1.55,1.59-2.15-.13-1.58-1.62-2.97-3.34-3.13-.59,1.76.89,3.97,1.24,4.45Z"/>
    <rect class="cls-1" x="10.65" y="9.99" width="26.66" height="3.92"/>
    <rect class="cls-1" x="10.65" y="14.91" width="26.66" height="3.92"/>
    <path class="cls-1" d="M42.36,8.93c-.1-1.58-.61-2.97-1.36-3.95-.02-.02-.03-.05-.05-.07-.56-.7-1.25-1.17-2.01-1.32.17,2.76,1.61,4.97,3.42,5.33Z"/>
    <path class="cls-1" d="M30.05,6.93c.18.63.3,1.31.33,2.02,2.46-.31,4.41-3.01,4.6-6.37-2.75.21-4.91,2.07-4.93,4.35Z"/>
    <rect class="cls-1" x="42.97" y="9.98" width="4.39" height="3.92"/>
    <rect class="cls-1" x="38.31" y="9.99" width="3.65" height="8.84"/>
    <rect class="cls-1" x="42.97" y="14.91" width="4.39" height="3.92"/>
    <polygon class="cls-1" points="9.65 14.41 9.65 14.4 9.65 9.99 6 9.99 6 18.83 9.65 18.83 9.65 14.41 9.65 14.41"/>
    <path class="cls-1" d="M4.09,6.93c.18.63.29,1.31.33,2.02,2.46-.31,4.41-3.01,4.6-6.37-2.75.21-4.91,2.08-4.93,4.35Z"/>
    <path class="cls-1" d="M3.42,8.93c-.1-1.55-.59-2.92-1.33-3.9-.03-.04-.06-.08-.1-.14-.56-.69-1.25-1.15-2-1.3.17,2.76,1.61,4.97,3.42,5.33Z"/>
    <path class="cls-1" d="M2.9,4.44s0,.01.02.02c.05.06.08.12.11.17.14.2.27.42.39.64.32-.82.87-1.55,1.59-2.15C4.88,1.55,3.39.16,1.67,0c-.59,1.76.88,3.95,1.23,4.44Z"/>
    <rect class="cls-1" x=".61" y="14.91" width="4.39" height="3.92"/>
    <rect class="cls-1" x=".61" y="9.99" width="4.39" height="3.92"/>
  </g>
</svg>