<?xml version="1.0" encoding="UTF-8"?>
<svg id="Laag_2" data-name="Laag 2" xmlns="http://www.w3.org/2000/svg" viewBox="0 0 684.77 684.83" class="image-dienst-tuinonderhoud">
  <defs>
    <style>
      .cls-1 {
        fill: #54a88a;
        stroke-width: 0px;
      }
    </style>
  </defs>
  <g id="Laag_1-2" data-name="Laag 1">
    <g>
      <path class="cls-1" d="M54.5,217.73l150.6,86.8c.7.4,1.5.6,2.3.6.5,0,1.1-.1,1.6-.3,1.3-.5,2.3-1.5,2.8-2.8,4.3-11.3,4-21.1-.6-26.2l25.8-52,93.3-25.9,17.5,27c.9,1.3,2.4,2.2,3.9,2.2h7.3c2.1,0,4-1.5,4.5-3.5.2-.7,4.7-18.1,4.6-48.4-.2-30.3-5-47.6-5.2-48.4-.6-2.1-2.4-3.5-4.5-3.5h-7.3c-1.6,0-3.1.8-4,2.2l-17.4,27.5-55.4-4.8,8.2-16.6c3-6.1.7-13.7-5.1-17.1l-24-13.8c1.3-35-16.2-69.6-48.3-88C182.9-.07,157-3.37,132.3,3.53c-24.7,6.9-45.3,23.1-57.9,45.6-22.6,40.3-13.6,90.1,19.1,120l-18.1,28.6c-6.7-1.4-15.2,3.3-22.5,12.9-.8,1.1-1.2,2.5-.9,3.9.5,1.4,1.3,2.6,2.5,3.2ZM353.9,132.93h1c1.3,6.3,3.9,21,4,42.3s-2.2,36-3.5,42.3h-1l-18.5-28.5-.2-27.4,18.2-28.7ZM326.3,162.43l.2,26.8-83.7,23.2,27.2-54.9,56.3,4.9ZM274.3,127.43l-71,143.2-119.1-68.6,85.2-135c.9-1.4,3-2,4.5-1.1l99,57.1c1.5.8,2.2,2.9,1.4,4.4ZM111.3,141.33c-18.6-20.2-23.1-51-8.9-76.2,11.8-21,33.4-32.7,55.7-32.7,10.7,0,21.5,2.7,31.5,8.5,15.8,9.1,26.2,24,30.3,40.5l-41.3-23.8c-5.8-3.4-13.5-1.4-17.1,4.3l-50.2,79.4ZM82.9,53.93c11.4-20.3,29.9-34.9,52.2-41.1,7.6-2.1,15.4-3.2,23.1-3.2,14.8,0,29.3,3.9,42.5,11.4,20,11.5,34.4,30.3,40.5,52.9,1.9,7.1,2.9,14.3,3.1,21.4l-13.6-7.8c-2.9-22.3-15.7-43.1-36.4-55-35.2-20.3-80.1-7.8-100.1,27.9-16.7,29.7-10.9,66.2,11.9,89.3l-7.1,11.3c-28.5-27.1-36.2-71.3-16.1-107.1ZM74.2,207.33l129.7,74.7c1.4.8,2.2,5.1.8,11.3l-140.4-80.9c4.5-4.5,8.5-6,9.9-5.1Z"/>
      <path class="cls-1" d="M444.5,159.53c35.6,0,64.5,29.3,64.5,65.4v122.1c0,2.6,2.1,4.8,4.7,4.8s4.7-2.1,4.7-4.8v-122.2c0-41.3-33.2-74.9-74-74.9-2.6,0-4.7,2.1-4.7,4.8.1,2.6,2.2,4.8,4.8,4.8Z"/>
      <path class="cls-1" d="M411.7,167.83c35.6,0,64.5,29.3,64.5,65.4v122.1c0,2.6,2.1,4.8,4.7,4.8s4.7-2.1,4.7-4.8v-122.1c0-41.3-33.2-74.9-74-74.9-2.6,0-4.7,2.1-4.7,4.8.1,2.6,2.2,4.7,4.8,4.7Z"/>
      <path class="cls-1" d="M379,178.03c35.6,0,64.5,29.3,64.5,65.4v122c0,2.6,2.1,4.8,4.7,4.8s4.7-2.1,4.7-4.8v-122c0-41.3-33.2-74.9-74-74.9-2.6,0-4.7,2.1-4.7,4.8.1,2.6,2.2,4.7,4.8,4.7Z"/>
      <path class="cls-1" d="M680.4,675.23h-144v-47.1c4,.8,9.7,1.7,16,1.7,8.6,0,18.5-1.6,27.1-7,20.5-12.9,24.9-42,25.1-43.2.3-2.3-1-4.5-3.2-5.3-1.2-.4-28.8-9.2-49.3,3.8-6.9,4.4-12,10.5-15.7,16.9v-38.5c6.4-3.5,10-13.9,10.5-24.8,6.7,6.1,14.6,10.5,21.1,10.5,3,0,5.7-.9,7.8-3.1,6.7-6.8,1.5-19.5-7.4-29.3,13.2-.6,25.7-5.9,25.7-15.5s-12.5-14.8-25.7-15.5c4-4.5,7.1-9.3,8.8-13.9,3.3-8.8.5-13.4-1.5-15.4-6.7-6.8-19.2-1.5-29,7.5-.6-13.3-5.8-26-15.3-26s-14.6,12.7-15.3,26c-9.7-9-22.3-14.2-29-7.5-2,2-4.8,6.6-1.5,15.4,1.7,4.6,4.8,9.4,8.8,13.9-13.2.6-25.7,5.9-25.7,15.5s12.5,14.8,25.7,15.5c-4,4.5-7.1,9.3-8.8,13.9-3.3,8.8-.5,13.4,1.5,15.4,2.1,2.1,4.8,3.1,7.8,3.1,6.5,0,14.5-4.4,21.1-10.5.5,10.9,4.1,21.4,10.5,24.8v38.5c-3.7-6.3-8.8-12.5-15.7-16.9-20.5-12.9-48.2-4.1-49.3-3.8-2.2.7-3.6,2.9-3.2,5.3.2,1.2,4.6,30.3,25.1,43.2h0c8.6,5.4,18.5,7,27.1,7,6.3,0,12-.9,16-1.7v47.1h-179v-59.5c4.9,1.1,12.2,2.3,20.5,2.3,10.3,0,22.1-1.9,32.4-8.4,24.5-15.5,29.8-50.3,30-51.8.3-2.3-1-4.5-3.2-5.3-1.4-.5-34.6-11-59.1,4.5-9.5,6-16.1,14.9-20.6,23.6v-51.4c8.3-3.9,12.7-17.8,12.9-31.9,8.2,8.1,18.5,14.1,26.6,14.1,3.4,0,6.5-1.1,8.8-3.5,8-8.1.8-24.1-10.5-35.9,16.3-.2,32.5-6.3,32.5-17.8s-16.2-17.6-32.5-17.8c11.4-11.8,18.6-27.8,10.5-35.9-8-8.1-23.7-.8-35.4,10.7-.2-16.5-6.3-32.9-17.6-32.9s-17.4,16.4-17.6,32.9c-11.7-11.5-27.4-18.8-35.4-10.7s-.8,24,10.5,35.9c-16.3.2-32.5,6.3-32.5,17.8s16.2,17.6,32.5,17.8c-11.4,11.8-18.6,27.8-10.5,35.9,2.4,2.4,5.4,3.5,8.8,3.5,8.1,0,18.4-6,26.6-14.1.2,14,4.6,28,12.9,31.9v51.4c-4.6-8.7-11.2-17.6-20.6-23.6-24.5-15.5-57.7-4.9-59.1-4.5-2.2.7-3.6,2.9-3.2,5.3.2,1.5,5.5,36.3,30,51.8h0c10.3,6.5,22.1,8.4,32.4,8.4,8.3,0,15.6-1.2,20.5-2.3v59.5h-179.5v-47.1c4,.8,9.7,1.7,16,1.7,8.6,0,18.5-1.6,27.1-7h0c20.5-12.9,24.9-42,25.1-43.2.3-2.3-1-4.5-3.2-5.3-1.2-.4-28.8-9.2-49.3,3.8-6.9,4.4-12,10.5-15.7,16.9v-38.5c6.4-3.5,10-13.9,10.5-24.8,6.7,6.1,14.6,10.5,21.1,10.5,3,0,5.7-.9,7.8-3.1,2-2,4.8-6.6,1.5-15.4-1.7-4.6-4.8-9.4-8.8-13.9,13.2-.6,25.7-5.9,25.7-15.5s-12.5-14.8-25.7-15.5c4-4.5,7.1-9.3,8.8-13.9,3.3-8.8.5-13.4-1.5-15.4-6.7-6.8-19.2-1.5-29,7.5-.6-13.3-5.8-26-15.3-26s-14.6,12.7-15.3,26c-9.7-9-22.3-14.2-29-7.5-2,2-4.8,6.6-1.5,15.4,1.7,4.6,4.8,9.4,8.8,13.9-13.2.6-25.7,5.9-25.7,15.5s12.5,14.8,25.7,15.5c-8.9,9.9-14,22.6-7.4,29.3,2.1,2.1,4.8,3.1,7.8,3.1,6.5,0,14.5-4.4,21.1-10.5.5,10.9,4.1,21.4,10.5,24.8v38.5c-3.7-6.3-8.8-12.5-15.7-16.9-20.5-12.9-48.2-4.1-49.3-3.8-2.2.7-3.6,2.9-3.2,5.3.2,1.2,4.6,30.3,25.1,43.2h0c8.6,5.4,18.5,7,27.1,7,6.3,0,12-.9,16-1.7v47.1H4.7c-2.6,0-4.7,2.1-4.7,4.8s2.1,4.8,4.7,4.8h675.3c2.6,0,4.7-2.1,4.7-4.8.5-2.7-1.7-4.8-4.3-4.8ZM557.1,586.23c12.6-8,29.6-5.5,37.3-3.8-1.9,7.8-7.2,24.3-19.9,32.2h0c-12.6,8-29.6,5.5-37.3,3.8,2-7.7,7.3-24.2,19.9-32.2ZM488.8,614.73h0c-12.6-8-18-24.5-19.9-32.2,7.7-1.7,24.7-4.1,37.3,3.8,12.6,8,18,24.5,19.9,32.3-7.6,1.6-24.6,4-37.3-3.9ZM531.7,500.33c-.9,0-1.7.1-2.6.3-.4-.7-.9-1.4-1.6-2.1-.5-.5-1.2-1.1-2.1-1.6.2-.8.3-1.7.3-2.6s-.1-1.8-.3-2.6c.7-.4,1.4-1,2-1.6.5-.5,1.1-1.2,1.6-2.1.8.2,1.7.3,2.6.3s1.8-.1,2.6-.3c.5.9,1.1,1.6,1.6,2.1.6.6,1.3,1.2,2,1.6-.2.8-.3,1.7-.3,2.6s.1,1.8.3,2.6c-.9.5-1.5,1.1-2.1,1.6-.6.6-1.2,1.3-1.6,2.1-.6-.2-1.5-.3-2.4-.3ZM569.3,532.43c-1,1-8.9-.6-17.5-9.3-3-3.1-5.2-6-6.7-8.6-.7-2.4-1.6-4.6-2.6-6.5-.3-1.4-.2-2.3.1-2.6.1-.1.5-.2,1.2-.2.4,0,.8,0,1.4.2,1.9,1.1,4.1,2,6.4,2.7,2.9,1.7,5.8,4,8.5,6.7h0c8.6,8.5,10.2,16.5,9.2,17.6ZM584.8,494.33c0,1.5-6.7,6-18.9,6-4.3,0-7.9-.6-10.7-1.3-1.4-.8-2.8-1.4-4.1-1.9-.8-.3-1.5-.5-2.3-.7-1.2-.8-1.8-1.5-1.8-1.9s.6-1.1,1.8-1.9c2.1-.6,4.2-1.5,6.4-2.7,2.9-.8,6.5-1.3,10.7-1.3,12.2-.2,18.9,4.3,18.9,5.7ZM569.3,456.33c.2.2.7,1.7-.7,5.2-1.5,4-4.6,8.5-8.5,12.5-2.7,2.7-5.7,5.1-8.5,6.7-2.3.7-4.5,1.6-6.4,2.6-1.7.3-2.5,0-2.6-.1s-.4-.9-.1-2.6c1.1-1.9,1.9-4.1,2.6-6.5,1.7-2.9,4-5.9,6.7-8.6h0c8.6-8.6,16.4-10.2,17.5-9.2ZM531.7,440.63c1.5,0,5.9,6.8,5.9,19.1,0,4.3-.5,8-1.3,10.9-.7,1.4-1.4,2.8-1.9,4.2-.3.8-.5,1.6-.7,2.3-.8,1.2-1.5,1.8-1.9,1.8s-1.1-.6-1.9-1.8c-.2-.7-.4-1.5-.7-2.3-.5-1.4-1.2-2.8-1.9-4.2-.8-2.9-1.3-6.5-1.3-10.9-.2-12.3,4.3-19.1,5.7-19.1ZM494.2,456.33c.2-.2.6-.3,1.1-.3,2.6,0,9.3,2.4,16.4,9.6h0c2.7,2.7,5,5.7,6.7,8.6.7,2.4,1.6,4.6,2.6,6.5.3,1.7,0,2.5-.1,2.6s-.9.4-2.6.1c-1.9-1.1-4.1-1.9-6.4-2.6-2.9-1.7-5.8-4-8.5-6.7-3.9-4-7.1-8.5-8.5-12.5-1.4-3.6-.9-5.1-.7-5.3ZM478.6,494.33c0-1.5,6.7-5.9,18.9-5.9,4.3,0,7.9.6,10.7,1.3,2.2,1.2,4.3,2.1,6.4,2.7,1.1.8,1.8,1.5,1.8,1.9s-.6,1.2-1.8,1.9c-.7.2-1.5.4-2.3.7-1.3.5-2.7,1.2-4.1,1.9-2.9.8-6.5,1.3-10.7,1.3-12.2.2-18.9-4.3-18.9-5.8ZM494.2,532.43c-.2-.2-.7-1.7.7-5.2,1.5-4,4.6-8.5,8.5-12.5h0c2.7-2.7,5.7-5.1,8.5-6.7,2.3-.7,4.5-1.6,6.4-2.7.6-.1,1-.2,1.4-.2.7,0,1.1.2,1.2.2.3.3.4,1.2.1,2.6-1.1,1.9-1.9,4.1-2.6,6.5-1.5,2.6-3.6,5.6-6.7,8.6-8.6,8.8-16.5,10.4-17.5,9.4ZM527.2,518.13c1.2-2.2,2.1-4.4,2.7-6.5.8-1.2,1.4-1.8,1.9-1.8.4,0,1.1.6,1.9,1.8.6,2.1,1.5,4.3,2.7,6.5.8,2.9,1.3,6.5,1.3,10.9,0,12.3-4.4,19.1-5.9,19.1s-5.9-6.8-5.9-19.1c-.1-4.4.5-8,1.3-10.9ZM373.2,565.13c16.2-10.2,38.2-6.6,47.2-4.5-2.1,9.1-8.6,30.6-24.8,40.9h0c-16.2,10.2-38.2,6.6-47.2,4.5,2-9.1,8.5-30.6,24.8-40.9ZM290.1,601.53h0c-16.2-10.2-22.7-31.8-24.8-40.9,9-2.1,30.9-5.7,47.2,4.6,16.2,10.2,22.7,31.8,24.8,40.9-9,2-30.9,5.6-47.2-4.6ZM342.8,462.53c-1.3,0-2.5.2-3.6.6-.5-1.1-1.2-2.1-2.1-3s-1.9-1.6-3-2.2c.4-1.2.6-2.4.6-3.7s-.2-2.5-.6-3.7c1.1-.5,2.1-1.3,3-2.2s1.6-1.9,2.1-3c1.1.4,2.3.6,3.6.6s2.5-.2,3.6-.6c.5,1.1,1.2,2.1,2.1,3s1.9,1.6,3,2.2c-.4,1.2-.6,2.4-.6,3.7s.2,2.5.6,3.7c-1.1.5-2.1,1.2-3,2.2-.9.9-1.6,1.9-2.1,3-1.1-.3-2.3-.6-3.6-.6ZM389.1,501.23c-2,2.1-12.2-.7-22.7-11.3-3.4-3.4-6.2-7.1-8.3-10.7-.9-3-1.9-5.7-3.3-8.1-.4-2.2-.2-3.7.4-4.2.4-.4,1.2-.6,2.2-.6.5,0,1.2.1,1.9.2,2.4,1.4,5.2,2.5,8.2,3.4,3.2,1.9,6.8,4.7,10.5,8.3,10.5,10.7,13.2,21,11.1,23ZM408.3,454.33c0,2.9-9.1,8.3-24,8.3-5.2,0-9.6-.7-13.3-1.6-2.8-1.5-5.5-2.7-8.2-3.5-1.6-1.1-2.5-2.3-2.5-3.2s.9-2.1,2.5-3.2c2.7-.7,5.4-1.9,8.2-3.4,3.6-1,8.1-1.6,13.3-1.6,14.9-.1,24,5.3,24,8.2ZM387,406.73c1,0,1.7.2,2.2.6,2,2.1-.7,12.4-11.2,23-3.7,3.7-7.3,6.4-10.5,8.4-3,.9-5.8,2-8.2,3.4-2,.4-3.4.2-4-.4s-.8-2.1-.4-4.1c1.4-2.4,2.5-5.2,3.4-8.3,1.9-3.3,4.6-6.9,8.3-10.7,8.2-8.4,16.4-11.9,20.4-11.9ZM342.8,387.93c2.9,0,8.2,9.2,8.2,24.3,0,5.2-.6,9.8-1.6,13.4-1.5,2.8-2.7,5.6-3.4,8.3-1.1,1.7-2.2,2.6-3.1,2.6s-2-.9-3.1-2.6c-.7-2.7-1.9-5.5-3.4-8.3-1-3.7-1.6-8.2-1.6-13.4-.2-15.1,5.1-24.3,8-24.3ZM296.5,407.43c.4-.4,1.2-.6,2.2-.6,4,0,12.2,3.5,20.6,12,3.7,3.7,6.4,7.4,8.3,10.7.9,3.1,2,5.9,3.4,8.3.4,2,.2,3.4-.4,4.1-.6.6-2,.8-4,.4-2.4-1.4-5.2-2.5-8.2-3.4-3.2-1.9-6.9-4.7-10.5-8.4-10.8-10.8-13.5-21.1-11.4-23.1ZM277.3,454.33c0-2.9,9.1-8.3,24-8.3,5.2,0,9.6.7,13.3,1.6,2.8,1.5,5.5,2.7,8.2,3.4,1.7,1.1,2.5,2.3,2.5,3.2s-.9,2-2.5,3.2c-2.7.7-5.4,1.9-8.2,3.5-3.6,1-8.1,1.6-13.3,1.6-14.9.1-24-5.3-24-8.2ZM296.5,501.23c-2-2.1.7-12.4,11.2-23,3.6-3.7,7.2-6.4,10.5-8.3,3-.9,5.8-2,8.2-3.4.7-.1,1.3-.2,1.9-.2,1,0,1.7.2,2.2.6.5.5.8,2,.4,4.2-1.3,2.4-2.4,5.1-3.3,8.1-2.1,3.6-4.9,7.3-8.3,10.7-10.6,10.7-20.8,13.4-22.8,11.3ZM336.3,482.93c.9-1.7,1.7-3.4,2.4-5.1.4-1,.7-2,.9-2.9,1.2-1.8,2.3-2.7,3.2-2.7s2.1.9,3.2,2.7c.3,1,.6,1.9.9,2.9.6,1.7,1.4,3.4,2.4,5.1,1,3.7,1.6,8.2,1.6,13.5,0,15.1-5.3,24.3-8.2,24.3s-8.2-9.2-8.2-24.3c.1-5.3.8-9.8,1.8-13.5ZM179.3,586.23c12.6-8,29.6-5.5,37.3-3.8-1.9,7.8-7.3,24.3-19.9,32.2h0c-12.6,8-29.6,5.5-37.3,3.8,1.9-7.7,7.3-24.2,19.9-32.2ZM111,614.73h0c-12.6-8-18-24.5-19.9-32.3,7.7-1.7,24.7-4.2,37.3,3.8,12.6,8,18,24.5,19.9,32.3-7.7,1.7-24.6,4.1-37.3-3.8ZM153.9,500.33c-.9,0-1.7.1-2.6.3-.4-.7-.9-1.4-1.6-2.1-.5-.5-1.2-1.1-2.1-1.6.2-.8.3-1.7.3-2.6s-.1-1.8-.3-2.6c.7-.4,1.4-1,2-1.6.5-.5,1.1-1.2,1.6-2.1.8.2,1.7.3,2.6.3s1.8-.1,2.6-.3c.5.9,1.1,1.6,1.6,2.1.6.6,1.3,1.2,2,1.6-.2.8-.3,1.7-.3,2.6s.1,1.8.3,2.6c-.9.5-1.5,1.1-2.1,1.6-.6.6-1.2,1.3-1.6,2.1-.7-.2-1.5-.3-2.4-.3ZM191.4,532.43c-1,1-8.9-.6-17.5-9.3-3-3.1-5.2-6-6.7-8.6-.7-2.4-1.6-4.6-2.6-6.5-.3-1.4-.2-2.3.1-2.6.1-.1.5-.2,1.2-.2.4,0,.8,0,1.4.2,1.9,1.1,4.1,2,6.4,2.7,2.9,1.7,5.8,4,8.5,6.7h0c3.9,4,7.1,8.5,8.5,12.5,1.4,3.4.9,4.9.7,5.1ZM207,494.33c0,1.5-6.7,6-18.9,6-4.3,0-7.9-.6-10.7-1.3-1.4-.8-2.8-1.4-4.1-1.9-.8-.3-1.5-.5-2.3-.7-1.2-.8-1.8-1.5-1.8-1.9s.6-1.1,1.8-1.9c2.1-.6,4.2-1.5,6.4-2.7,2.9-.8,6.5-1.3,10.7-1.3,12.2-.2,18.9,4.3,18.9,5.7ZM191.4,456.33c.2.2.7,1.7-.7,5.2-1.5,4-4.6,8.5-8.5,12.5-2.7,2.7-5.7,5.1-8.5,6.7-2.3.7-4.5,1.6-6.4,2.6-1.7.3-2.5,0-2.6-.1s-.4-.9-.1-2.6c1.1-1.9,1.9-4.1,2.6-6.5,1.7-2.9,4-5.9,6.7-8.6h0c8.6-8.6,16.5-10.2,17.5-9.2ZM153.9,440.63c1.5,0,5.9,6.8,5.9,19.1,0,4.3-.5,8-1.3,10.9-.7,1.4-1.4,2.8-1.9,4.2-.3.8-.5,1.6-.7,2.3-.8,1.2-1.5,1.8-1.9,1.8s-1.1-.6-1.9-1.8c-.2-.7-.4-1.5-.7-2.3-.5-1.4-1.2-2.8-1.9-4.2-.8-2.9-1.3-6.5-1.3-10.9-.2-12.3,4.2-19.1,5.7-19.1ZM116.3,456.33c.2-.2.6-.3,1.1-.3,2.6,0,9.3,2.4,16.4,9.6h0c2.7,2.7,5,5.7,6.7,8.6.7,2.4,1.6,4.6,2.6,6.5.3,1.7,0,2.5-.1,2.6s-.9.4-2.6.1c-1.9-1.1-4.1-1.9-6.4-2.6-2.9-1.7-5.8-4-8.5-6.7-3.9-4-7-8.5-8.5-12.5-1.3-3.6-.8-5.1-.7-5.3ZM100.8,494.33c0-1.5,6.7-5.9,18.9-5.9,4.3,0,7.9.6,10.7,1.3,2.2,1.2,4.3,2.1,6.4,2.7,1.1.8,1.8,1.5,1.8,1.9s-.6,1.2-1.8,1.9c-.7.2-1.5.4-2.3.7-1.3.5-2.7,1.2-4.1,1.9-2.9.8-6.5,1.3-10.7,1.3-12.2.2-18.9-4.3-18.9-5.8ZM116.3,532.43c-1-1,.6-9,9.2-17.7h0c2.7-2.7,5.7-5.1,8.5-6.7,2.3-.7,4.5-1.6,6.4-2.7.6-.1,1-.2,1.4-.2.7,0,1.1.2,1.2.2.3.3.4,1.2.1,2.6-1.1,1.9-1.9,4.1-2.6,6.5-1.5,2.6-3.6,5.6-6.7,8.6-8.6,8.8-16.4,10.4-17.5,9.4ZM149.3,518.13c1.2-2.2,2.1-4.4,2.7-6.5.8-1.2,1.4-1.8,1.9-1.8.4,0,1.1.6,1.9,1.8.6,2.1,1.5,4.3,2.7,6.5.8,2.9,1.3,6.5,1.3,10.9,0,12.3-4.4,19.1-5.9,19.1s-5.9-6.8-5.9-19.1c0-4.4.6-8,1.3-10.9Z"/>
    </g>
  </g>
</svg>